<?xml version="1.0" encoding="utf-8"?>
<!-- Generator: Adobe Illustrator 21.0.0, SVG Export Plug-In . SVG Version: 6.00 Build 0)  -->
<svg version="1.1" id="Layer_1" xmlns="http://www.w3.org/2000/svg" xmlns:xlink="http://www.w3.org/1999/xlink" x="0px" y="0px"
	 viewBox="0 0 1366 165" style="enable-background:new 0 0 1366 165;" xml:space="preserve">
<style type="text/css">
	.st0{fill:#FFFFFF;}
</style>
<g>
	<path class="st0" d="M27.7,2.4l95.6,112.3V2.4h30.4v160.9H127L30.8,49.2v114.2H0.4V2.4H27.7z"/>
	<path class="st0" d="M226.4,53.7c11.2,0,21.4,2.3,30.5,7c9.1,4.7,16.2,11.3,21.2,19.7c5,8.4,7.5,18,7.5,28.7
		c0,11.1-2.4,20.9-7.2,29.3c-4.8,8.4-11.9,15-21.2,19.8c-9.3,4.8-19.6,7.3-30.8,7.3c-11.3,0-21.5-2.4-30.8-7.3
		c-9.2-4.8-16.2-11.4-21-19.8c-4.8-8.4-7.2-18.1-7.2-29.3c0-10.8,2.5-20.4,7.6-28.9c5.1-8.4,12.1-14.9,21.2-19.6
		C205.3,56,215.3,53.7,226.4,53.7z M197.1,109.1c0,10.8,2.6,19.3,7.9,25.7c5.3,6.4,12.3,9.6,21.1,9.6c9.2,0,16.5-3.1,21.8-9.2
		c5.3-6.1,7.9-14.9,7.9-26.4c0-10.9-2.7-19.3-8-25.3c-5.3-6-12.6-8.9-21.7-8.9c-8.6,0-15.6,3.2-21,9.4
		C199.8,90.4,197.1,98.7,197.1,109.1z"/>
	<path class="st0" d="M336.5,53.7c13.8,0,24.4,2.9,31.7,8.8c7.3,5.9,10.9,14.1,10.9,24.6v52.6c0,4.1,1.7,6.1,5,6.1
		c1.4,0,3.3-0.6,5.8-1.8c2.5-1.2,4.6-2.6,6.3-4.1v16.4c-9.9,6.1-19,9.1-27.2,9.1c-5.1,0-9-0.8-11.7-2.5c-2.7-1.7-4.6-4.7-5.7-9
		c-10.8,7.7-21.7,11.5-32.6,11.5c-7.8,0-14.4-2.6-20-7.8c-5.6-5.2-8.4-11.5-8.4-18.8c0-9.3,2.8-16.6,8.3-22
		c5.5-5.4,15.2-10.1,29-14.1l22.9-6.7v-5c0-10.5-6.4-15.8-19.1-15.8c-6.5,0-13,1.5-19.5,4.5s-12.3,7.4-17.6,13.2V67.6
		C306.4,58.3,320.4,53.7,336.5,53.7z M319.2,134.5c0,3.9,1.2,7.1,3.7,9.4c2.5,2.4,5.6,3.6,9.3,3.6c6.2,0,12.4-2.8,18.7-8.5v-28.3
		c-7.9,2.7-14.1,5.2-18.6,7.6c-4.5,2.4-7.8,4.8-9.9,7.3C320.3,128,319.2,131,319.2,134.5z"/>
	<path class="st0" d="M473.8,58.2V2.4H502v160.9h-49.8c-17.2,0-31-5-41.3-14.9c-10.3-9.9-15.5-23.4-15.5-40.6
		c0-10.1,2.4-19.4,7.2-27.6c4.8-8.3,11.4-14.8,19.8-19.5c8.4-4.7,17.5-7.1,27.2-7.1C457.2,53.7,465.3,55.2,473.8,58.2z M458.9,141.7
		h14.9V79.4c-5.8-3-11.9-4.5-18.2-4.5c-9.4,0-17,3-22.6,8.9c-5.6,5.9-8.5,13.7-8.5,23.3C424.5,130.1,436,141.7,458.9,141.7z"/>
	<path class="st0" d="M567.9,53.7c15.8,0,28.3,5.1,37.6,15.2s13.8,24.2,13.8,42v4.3h-76.1c1.2,9.6,4.7,17,10.8,22.2
		c6,5.2,14.3,7.8,24.8,7.8c6.8,0,13.3-1.2,19.5-3.5c6.3-2.3,12.7-5.9,19.4-10.7V152c-12.6,8.9-27.9,13.4-45.9,13.4
		c-17,0-30.8-5.1-41.6-15.3c-10.8-10.2-16.1-23.8-16.1-40.8c0-16.4,5-29.7,14.9-40.1C538.9,58.8,551.9,53.7,567.9,53.7z M592.6,98
		c-0.8-7.8-3.2-14-7.1-18.4c-4-4.4-9.5-6.6-16.5-6.6c-7.1,0-12.9,2.1-17.2,6.3c-4.3,4.2-7.1,10.4-8.2,18.7H592.6z"/>
	<path class="st0" d="M667.8,53.7c5.9,0,11.5,0.7,16.7,2c5.2,1.3,10.8,3.5,16.6,6.4v22.7c-5.4-3.5-11.1-6.2-17.3-8.4
		c-6.1-2.1-11.6-3.2-16.5-3.2c-4.1,0-7.3,0.8-9.6,2.3c-2.3,1.5-3.5,3.7-3.5,6.6c0,1.6,1,3.2,2.9,4.8c1.9,1.6,7.2,4.6,15.8,8.9
		c12.3,6.2,20.9,12,25.9,17.2c5,5.3,7.4,11.6,7.4,19c0,10.4-3.6,18.5-10.8,24.5c-7.2,6-17,8.9-29.3,8.9c-7.7,0-14.8-0.8-21.5-2.5
		c-6.6-1.7-12.2-3.7-16.5-6.1v-23.6c13.8,7.7,25.5,11.5,34.9,11.5c4.8,0,8.8-0.9,11.8-2.6s4.5-4,4.5-6.9c0-1.7-0.5-3.2-1.6-4.6
		c-1.1-1.4-2.7-2.8-4.8-4.3c-2.2-1.5-8.9-5-20.2-10.5c-8.7-4.1-15.1-8.7-19.2-13.5c-4.1-4.9-6.2-10.7-6.2-17.3
		c0-9.5,3.7-17.1,11.2-22.8C645.9,56.5,655.7,53.7,667.8,53.7z"/>
	<path class="st0" d="M830.3,0.3c15.7,0,30.8,3.9,45.3,11.8v27.6c-16.7-10.1-31.5-15.1-44.4-15.1c-7.8,0-14,1.5-18.4,4.6
		c-4.4,3-6.6,7.1-6.6,12.2c0,6.1,4.1,11.7,12.3,16.8c2.3,1.5,11.2,5.8,26.6,12.9c13.2,6.2,22.7,13.1,28.6,20.7
		c5.8,7.6,8.8,16.7,8.8,27.4c0,13.8-5,25-14.9,33.5c-9.9,8.5-22.8,12.7-38.7,12.7c-10.3,0-19.1-1.1-26.6-3.4
		c-7.4-2.3-15.7-6.2-24.9-11.7v-30.6c17.2,14.3,33.4,21.4,48.6,21.4c7.6,0,13.7-1.7,18.4-5c4.7-3.3,7-7.7,7-13.1
		c0-7.4-4.1-13.5-12.2-18.2c-6.8-3.7-15.5-8.1-26.2-13.2c-12.7-5.8-22.1-12.5-28.4-20.2c-6.3-7.7-9.4-16.6-9.4-26.7
		c0-13.5,5-24.3,15.1-32.3C800.5,4.3,813.7,0.3,830.3,0.3z"/>
	<path class="st0" d="M924.2,27.2h2.3v28.6h36.9v21.4h-36.9v49.7c0,4.8,1.5,8.8,4.4,11.8c2.9,3,6.9,4.5,12,4.5
		c6.6,0,14.2-2.4,22.8-7.1v22.7c-10.2,4.5-19.8,6.8-28.8,6.8c-12.1,0-21.6-3.3-28.4-9.9c-6.8-6.6-10.2-15.6-10.2-26.8V77.2h-16.8
		v-4.6L924.2,27.2z"/>
	<path class="st0" d="M999.3,55.7v66.6c0,7,1.7,12.3,5.2,16c3.5,3.6,8.1,5.5,13.9,5.5c4.8,0,9.3-1.5,13.7-4.4
		c4.4-2.9,7.9-7,10.6-12.3V55.7h28.3v107.6h-28.3v-14.6c-10.2,11.1-21.3,16.7-33.2,16.7c-11.5,0-20.8-3.8-27.9-11.3
		c-7.1-7.5-10.6-17.4-10.6-29.5V55.7H999.3z"/>
	<path class="st0" d="M1161.4,58.2V2.4h28.2v160.9h-49.8c-17.2,0-31-5-41.3-14.9c-10.3-9.9-15.5-23.4-15.5-40.6
		c0-10.1,2.4-19.4,7.2-27.6c4.8-8.3,11.4-14.8,19.8-19.5c8.4-4.7,17.5-7.1,27.2-7.1C1144.8,53.7,1152.9,55.2,1161.4,58.2z
		 M1146.5,141.7h14.9V79.4c-5.8-3-11.9-4.5-18.2-4.5c-9.4,0-17,3-22.6,8.9c-5.6,5.9-8.5,13.7-8.5,23.3
		C1112.1,130.1,1123.6,141.7,1146.5,141.7z"/>
	<path class="st0" d="M1221.9,6c4.4,0,8.1,1.6,11.3,4.7c3.1,3.2,4.7,6.9,4.7,11.3c0,4.2-1.6,8-4.7,11.2c-3.1,3.3-6.9,4.9-11.3,4.9
		c-4.3,0-8-1.6-11.2-4.9c-3.2-3.3-4.8-7-4.8-11.2c0-4.5,1.6-8.2,4.8-11.3C1214,7.5,1217.7,6,1221.9,6z M1236.1,55.7v107.6h-28.3
		V55.7H1236.1z"/>
	<path class="st0" d="M1306.8,53.7c11.2,0,21.4,2.3,30.5,7c9.1,4.7,16.2,11.3,21.2,19.7c5,8.4,7.5,18,7.5,28.7
		c0,11.1-2.4,20.9-7.2,29.3c-4.8,8.4-11.9,15-21.2,19.8c-9.3,4.8-19.6,7.3-30.8,7.3c-11.3,0-21.5-2.4-30.8-7.3
		c-9.2-4.8-16.2-11.4-21-19.8c-4.8-8.4-7.2-18.1-7.2-29.3c0-10.8,2.5-20.4,7.6-28.9c5.1-8.4,12.1-14.9,21.2-19.6
		C1285.7,56,1295.7,53.7,1306.8,53.7z M1277.5,109.1c0,10.8,2.6,19.3,7.9,25.7c5.3,6.4,12.3,9.6,21.1,9.6c9.2,0,16.5-3.1,21.8-9.2
		c5.3-6.1,7.9-14.9,7.9-26.4c0-10.9-2.7-19.3-8-25.3c-5.3-6-12.6-8.9-21.7-8.9c-8.6,0-15.6,3.2-21,9.4
		C1280.2,90.4,1277.5,98.7,1277.5,109.1z"/>
</g>
</svg>
